#N canvas 147 194 1729 799 12;
#X msg 303 266 bang;
#X obj 149 531 bonk~;
#X msg 100 69 mask 4 0.7;
#X msg 165 215 useloudness 0;
#X obj 286 87 loadbang;
#X obj 297 393 adc~ 1;
#X obj 107 582 s attack;
#X obj 913 55 loadbang;
#X msg 913 79 \; pd dsp 1;
#X obj 508 114 soundfiler;
#X msg 284 345 debounce 0;
#X msg 302 167 attack-frames 1;
#X msg 143 170 spew 0;
#X msg 506 50 read -resize ./o_string.wav array1;
#X obj 904 546 *~ 1;
#X obj 906 717 dac~ 1;
#X obj 238 602 print;
#X msg 73 28 thresh 2.5 8;
#X msg 274 131 minvel 75;
#X obj 439 197 netreceive -b -u 8000;
#X obj 440 234 oscparse;
#X obj 438 264 list trim;
#X obj 296 444 *~;
#X msg 438 317 \$1 5;
#X obj 438 341 line~;
#X obj 932 212 sigmund~ -npeak 8 peaks;
#X obj 1160 164 r attack;
#X obj 1357 220 spigot;
#X obj 1160 189 t b b;
#X obj 932 263 spigot;
#X msg 1160 220 1;
#X obj 1227 237 delay 10;
#X msg 1227 262 0;
#X obj 662 444 sing~ 1;
#X obj 438 289 route pot_0 pot_1 pot_2;
#X obj 1051 572 osc~;
#X obj 1051 597 *~ 0.5;
#X obj 1051 622 +~ 0.5;
#X obj 905 650 *~;
#X obj 662 408 route 0 1 2 3 4 5 6 7, f 125;
#X obj 798 443 sing~ 1;
#X obj 904 448 sing~ 1;
#X obj 1021 449 sing~ 1;
#X obj 1099 451 sing~ 1;
#X obj 1207 452 sing~ 1;
#X obj 1341 455 sing~ 1;
#X obj 1458 456 sing~ 1;
#X obj 497 539 * 16;
#X msg 496 572 \$1 5;
#X obj 496 596 line~;
#X connect 0 0 1 0;
#X connect 1 0 6 0;
#X connect 2 0 1 0;
#X connect 3 0 1 0;
#X connect 4 0 17 0;
#X connect 4 0 2 0;
#X connect 4 0 11 0;
#X connect 4 0 18 0;
#X connect 4 0 12 0;
#X connect 4 0 3 0;
#X connect 5 0 22 0;
#X connect 7 0 8 0;
#X connect 10 0 1 0;
#X connect 11 0 1 0;
#X connect 12 0 1 0;
#X connect 13 0 9 0;
#X connect 14 0 38 0;
#X connect 17 0 1 0;
#X connect 18 0 1 0;
#X connect 19 0 20 0;
#X connect 20 0 21 0;
#X connect 21 0 34 0;
#X connect 22 0 1 0;
#X connect 22 0 25 0;
#X connect 23 0 24 0;
#X connect 24 0 22 1;
#X connect 25 0 29 0;
#X connect 26 0 28 0;
#X connect 28 0 30 0;
#X connect 28 1 31 0;
#X connect 29 0 39 0;
#X connect 30 0 29 1;
#X connect 31 0 32 0;
#X connect 32 0 29 1;
#X connect 33 0 14 0;
#X connect 34 0 23 0;
#X connect 34 1 47 0;
#X connect 35 0 36 0;
#X connect 36 0 37 0;
#X connect 37 0 38 1;
#X connect 38 0 15 0;
#X connect 39 0 33 0;
#X connect 39 1 40 0;
#X connect 39 2 41 0;
#X connect 39 3 42 0;
#X connect 39 4 43 0;
#X connect 39 5 44 0;
#X connect 39 6 45 0;
#X connect 39 7 46 0;
#X connect 40 0 14 0;
#X connect 41 0 14 0;
#X connect 42 0 14 0;
#X connect 43 0 14 0;
#X connect 44 0 14 0;
#X connect 45 0 14 0;
#X connect 46 0 14 0;
#X connect 47 0 48 0;
#X connect 48 0 49 0;
#X connect 49 0 35 0;
