#N canvas 0 58 1920 1022 12;
#X msg 303 266 bang;
#X obj 73 414 bonk~;
#X msg 100 69 mask 4 0.7;
#X msg 73 28 thresh 2.5 5;
#X msg 302 167 attack-frames 1;
#X msg 143 170 spew 0;
#X msg 165 215 useloudness 0;
#X obj 286 87 loadbang;
#X obj 230 388 adc~ 1;
#X obj 73 438 s attack;
#X obj 548 56 r attack;
#X obj 522 158 line~;
#X obj 582 228 *~;
#X obj 620 148 osc~;
#X obj 548 87 t b b;
#X obj 628 99 random 1000;
#X obj 620 123 + 50;
#X obj 620 173 *~ 0.5;
#X obj 582 252 dac~ 1;
#X msg 522 134 1 \, 0 500;
#X obj 638 57 bng 15 250 50 0 empty empty empty 17 7 0 10 -262144 -1
-1;
#X floatatom 674 146 0 0 0 0 - - -;
#X msg 284 345 debounce 0;
#X obj 480 324 loadbang;
#X msg 480 348 \; pd dsp 1;
#X msg 274 131 minvel 25;
#X connect 0 0 1 0;
#X connect 1 0 9 0;
#X connect 2 0 1 0;
#X connect 3 0 1 0;
#X connect 4 0 1 0;
#X connect 5 0 1 0;
#X connect 6 0 1 0;
#X connect 7 0 3 0;
#X connect 7 0 2 0;
#X connect 7 0 4 0;
#X connect 7 0 25 0;
#X connect 7 0 5 0;
#X connect 7 0 6 0;
#X connect 8 0 1 0;
#X connect 10 0 14 0;
#X connect 11 0 12 0;
#X connect 12 0 18 0;
#X connect 13 0 17 0;
#X connect 14 0 19 0;
#X connect 14 1 15 0;
#X connect 15 0 16 0;
#X connect 16 0 13 0;
#X connect 16 0 21 0;
#X connect 17 0 12 1;
#X connect 19 0 11 0;
#X connect 20 0 14 0;
#X connect 22 0 1 0;
#X connect 23 0 24 0;
#X connect 25 0 1 0;
