#N canvas 147 194 1729 799 12;
#X msg 303 266 bang;
#X obj 149 531 bonk~;
#X msg 100 69 mask 4 0.7;
#X msg 165 215 useloudness 0;
#X obj 286 87 loadbang;
#X obj 506 151 adc~ 1;
#X obj 149 572 s attack;
#X obj 913 55 loadbang;
#X msg 913 79 \; pd dsp 1;
#X obj 1380 338 soundfiler;
#X msg 284 345 debounce 0;
#X msg 302 167 attack-frames 1;
#X msg 143 170 spew 0;
#X msg 1380 306 read -resize ./o_string.wav array1;
#X obj 386 829 *~ 1;
#X obj 387 900 dac~ 1;
#X msg 73 28 thresh 2.5 8;
#X msg 274 131 minvel 75;
#X obj 1044 59 netreceive -b -u 8000;
#X obj 1044 96 oscparse;
#X obj 1044 126 list trim;
#X obj 505 252 *~;
#X msg 524 203 \$1 5;
#X obj 524 227 line~;
#X obj 662 298 sigmund~ -npeak 8 peaks;
#X obj 840 256 r attack;
#X obj 662 352 spigot;
#X msg 840 332 1;
#X obj 144 727 sing~ 1;
#X obj 1044 151 route pot_0 pot_1 pot_2;
#X obj 144 691 route 0 1 2 3 4 5 6 7, f 125;
#X obj 253 727 sing~ 1;
#X obj 362 727 sing~ 1;
#X obj 471 727 sing~ 1;
#X obj 580 727 sing~ 1;
#X obj 689 727 sing~ 1;
#X obj 798 727 sing~ 1;
#X obj 907 727 sing~ 1;
#X obj 840 281 t b;
#X obj 1096 176 s vib;
#X obj 1044 176 s gain;
#X obj 524 178 r gain;
#X obj 662 386 t l b;
#X msg 735 386 0;
#X obj 840 306 delay 10;
#X obj 1094 301 clone sing~ 4;
#X msg 1015 247 vis 3 1;
#X msg 1099 252 all 13 14 15;
#X msg 875 421 0 12 13 \, 1 23 25 \, 2 11 12;
#X obj 875 446 list split 1;
#X floatatom 875 471 5 0 0 0 - - -;
#X connect 0 0 1 0;
#X connect 1 0 6 0;
#X connect 2 0 1 0;
#X connect 3 0 1 0;
#X connect 4 0 16 0;
#X connect 4 0 2 0;
#X connect 4 0 11 0;
#X connect 4 0 17 0;
#X connect 4 0 12 0;
#X connect 4 0 3 0;
#X connect 5 0 21 0;
#X connect 7 0 8 0;
#X connect 10 0 1 0;
#X connect 11 0 1 0;
#X connect 12 0 1 0;
#X connect 13 0 9 0;
#X connect 14 0 15 0;
#X connect 16 0 1 0;
#X connect 17 0 1 0;
#X connect 18 0 19 0;
#X connect 19 0 20 0;
#X connect 20 0 29 0;
#X connect 21 0 1 0;
#X connect 21 0 24 0;
#X connect 22 0 23 0;
#X connect 23 0 21 1;
#X connect 24 0 26 0;
#X connect 25 0 38 0;
#X connect 26 0 42 0;
#X connect 27 0 26 1;
#X connect 28 0 14 0;
#X connect 29 0 40 0;
#X connect 29 1 39 0;
#X connect 30 0 28 0;
#X connect 30 1 31 0;
#X connect 30 2 32 0;
#X connect 30 3 33 0;
#X connect 30 4 34 0;
#X connect 30 5 35 0;
#X connect 30 6 36 0;
#X connect 30 7 37 0;
#X connect 31 0 14 0;
#X connect 32 0 14 0;
#X connect 33 0 14 0;
#X connect 34 0 14 0;
#X connect 35 0 14 0;
#X connect 36 0 14 0;
#X connect 37 0 14 0;
#X connect 38 0 44 0;
#X connect 41 0 22 0;
#X connect 42 1 43 0;
#X connect 43 0 26 1;
#X connect 44 0 27 0;
#X connect 46 0 45 0;
#X connect 47 0 45 1;
#X connect 48 0 49 0;
#X connect 49 0 50 0;
