#N canvas 147 194 1729 654 12;
#X msg 303 266 bang;
#X obj 149 531 bonk~;
#X msg 100 69 mask 4 0.7;
#X msg 165 215 useloudness 0;
#X obj 286 87 loadbang;
#X obj 296 419 adc~ 1;
#X obj 107 582 s attack;
#X obj 530 187 loadbang;
#X msg 530 211 \; pd dsp 1;
#X obj 508 114 soundfiler;
#N canvas 0 50 450 250 (subpatch) 0;
#X array array1 352255 float 2;
#X coords 0 1 352255 -1 200 140 1;
#X restore 771 16 graph;
#X obj 606 380 tabplay~ array1;
#X obj 600 350 bng 15 250 50 0 empty empty empty 17 7 0 10 -262144
-1 -1;
#X msg 284 345 debounce 0;
#X msg 302 167 attack-frames 1;
#X msg 143 170 spew 0;
#X msg 506 50 read -resize ./o_string.wav array1;
#X obj 932 250 route 0 1 2 3, f 81;
#X obj 1174 408 *~ 1;
#X obj 1172 450 dac~ 1;
#X obj 238 602 print;
#X msg 73 28 thresh 2.5 8;
#X msg 274 131 minvel 75;
#X obj 345 475 netreceive -b -u 8000;
#X obj 346 512 oscparse;
#X obj 344 542 list trim;
#X obj 344 567 route pot_0;
#X obj 296 444 *~;
#X msg 344 595 \$1 5;
#X obj 344 619 line~;
#X obj 932 212 sigmund~ -npeak 8 peaks;
#X obj 932 306 sing~;
#X obj 1068 305 sing~;
#X obj 1212 307 sing~;
#X obj 1354 308 sing~;
#X connect 0 0 1 0;
#X connect 1 0 6 0;
#X connect 2 0 1 0;
#X connect 3 0 1 0;
#X connect 4 0 21 0;
#X connect 4 0 2 0;
#X connect 4 0 14 0;
#X connect 4 0 22 0;
#X connect 4 0 15 0;
#X connect 4 0 3 0;
#X connect 5 0 27 0;
#X connect 7 0 8 0;
#X connect 12 0 11 0;
#X connect 13 0 1 0;
#X connect 14 0 1 0;
#X connect 15 0 1 0;
#X connect 16 0 9 0;
#X connect 17 0 31 0;
#X connect 17 1 32 0;
#X connect 17 2 33 0;
#X connect 17 3 34 0;
#X connect 18 0 19 0;
#X connect 21 0 1 0;
#X connect 22 0 1 0;
#X connect 23 0 24 0;
#X connect 24 0 25 0;
#X connect 25 0 26 0;
#X connect 26 0 28 0;
#X connect 27 0 1 0;
#X connect 27 0 30 0;
#X connect 28 0 29 0;
#X connect 29 0 27 1;
#X connect 30 0 17 0;
#X connect 31 0 18 0;
#X connect 32 0 18 0;
#X connect 33 0 18 0;
#X connect 34 0 18 0;
