#N canvas 147 194 1729 799 12;
#X msg 303 266 bang;
#X obj 149 531 bonk~;
#X msg 100 69 mask 4 0.7;
#X msg 165 215 useloudness 0;
#X obj 286 87 loadbang;
#X obj 296 419 adc~ 1;
#X obj 107 582 s attack;
#X obj 913 55 loadbang;
#X msg 913 79 \; pd dsp 1;
#X obj 508 114 soundfiler;
#X msg 284 345 debounce 0;
#X msg 302 167 attack-frames 1;
#X msg 143 170 spew 0;
#X msg 506 50 read -resize ./o_string.wav array1;
#X obj 932 349 route 0 1 2 3, f 81;
#X obj 1174 487 *~ 1;
#X obj 1172 529 dac~ 1;
#X obj 238 602 print;
#X msg 73 28 thresh 2.5 8;
#X msg 274 131 minvel 75;
#X obj 345 475 netreceive -b -u 8000;
#X obj 346 512 oscparse;
#X obj 344 542 list trim;
#X obj 344 567 route pot_0;
#X obj 296 444 *~;
#X msg 344 595 \$1 5;
#X obj 344 619 line~;
#X obj 932 212 sigmund~ -npeak 8 peaks;
#X obj 1160 164 r attack;
#X obj 1357 220 spigot;
#X obj 1160 189 t b b;
#X obj 932 263 spigot;
#X msg 1160 220 1;
#X obj 1227 237 delay 10;
#X msg 1227 262 0;
#X obj 932 385 sing~ 1;
#X obj 1068 384 sing~ 1.03;
#X obj 1212 386 sing~ 1.1;
#X obj 1354 387 sing~ 1.12;
#X connect 0 0 1 0;
#X connect 1 0 6 0;
#X connect 2 0 1 0;
#X connect 3 0 1 0;
#X connect 4 0 18 0;
#X connect 4 0 2 0;
#X connect 4 0 11 0;
#X connect 4 0 19 0;
#X connect 4 0 12 0;
#X connect 4 0 3 0;
#X connect 5 0 24 0;
#X connect 7 0 8 0;
#X connect 10 0 1 0;
#X connect 11 0 1 0;
#X connect 12 0 1 0;
#X connect 13 0 9 0;
#X connect 14 0 35 0;
#X connect 14 1 36 0;
#X connect 14 2 37 0;
#X connect 14 3 38 0;
#X connect 15 0 16 0;
#X connect 18 0 1 0;
#X connect 19 0 1 0;
#X connect 20 0 21 0;
#X connect 21 0 22 0;
#X connect 22 0 23 0;
#X connect 23 0 25 0;
#X connect 24 0 1 0;
#X connect 24 0 27 0;
#X connect 25 0 26 0;
#X connect 26 0 24 1;
#X connect 27 0 31 0;
#X connect 28 0 30 0;
#X connect 30 0 32 0;
#X connect 30 1 33 0;
#X connect 31 0 14 0;
#X connect 32 0 31 1;
#X connect 33 0 34 0;
#X connect 34 0 31 1;
#X connect 35 0 15 0;
#X connect 36 0 15 0;
#X connect 37 0 15 0;
#X connect 38 0 15 0;
