#N canvas 0 58 1920 1022 16;
#X msg 303 266 bang;
#X obj 149 531 bonk~;
#X msg 100 69 mask 4 0.7;
#X msg 165 215 useloudness 0;
#X obj 286 87 loadbang;
#X obj 506 151 adc~ 1;
#X obj 149 710 s attack;
#X obj 913 55 loadbang;
#X msg 913 79 \; pd dsp 1;
#X obj 1510 55 soundfiler;
#X msg 302 167 attack-frames 1;
#X msg 143 170 spew 0;
#X msg 1510 23 read -resize ./o_string.wav array1;
#X msg 73 28 thresh 2.5 8;
#X obj 1044 96 oscparse;
#X obj 1044 126 list trim;
#X obj 505 252 *~;
#X msg 524 203 \$1 5;
#X obj 524 227 line~;
#X obj 1119 182 s vib;
#X obj 1044 182 s gain;
#X obj 524 178 r gain;
#X msg 784 1026 vis 3 1;
#X floatatom 602 175 5 0 0 0 - - -;
#X msg 310 338 debounce 0;
#X obj 149 566 t b;
#X msg 149 608 1;
#X obj 149 637 change;
#X msg 255 672 set 0;
#X obj 149 666 t b b;
#X obj 255 640 delay 75;
#X obj 487 408 print;
#X obj 662 452 spigot;
#X obj 939 427 tgl 25 0 empty empty empty 17 7 0 10 -262144 -1 -1 0
1;
#X obj 662 890 list split 1, f 13;
#X obj 662 922 t f f;
#X obj 662 1026 list append;
#X obj 709 988 f 0;
#X obj 939 332 r attack;
#X obj 939 391 f 1;
#X obj 477 86 tabplay~ array1;
#X obj 513 44 bng 15 250 50 0 empty empty empty 17 7 0 10 -262144 -1
-1;
#X msg 987 485 all clear;
#X obj 939 361 delay 25;
#X obj 1511 127 array define amps 16;
#X obj 729 603 tabwrite amps;
#X obj 729 540 unpack 0 0 0;
#X obj 729 569 swap;
#X obj 719 694 array max amps;
#X floatatom 719 723 5 0 0 0 - - -;
#X obj 662 481 t l b l;
#X obj 719 754 > 0.025;
#X obj 662 835 spigot;
#X obj 1512 196 soundfiler;
#X msg 1512 164 read -resize ./chord.wav array1;
#X obj 292 759 bng 25 250 50 0 empty empty empty 17 7 0 10 -262144
-1 -1;
#X obj 705 1403 dac~ 1;
#X obj 1130 727 osc~;
#X obj 1131 868 dac~ 1;
#X obj 1130 598 t f f;
#X obj 1130 627 sel 0;
#X obj 1130 656 f;
#X obj 1130 569 unpack 0 0;
#X obj 1130 685 * 0.5;
#X obj 1275 727 osc~ 0.1;
#X obj 1130 756 *~ 0.25;
#X text 1195 651 raddoppio fondamentale un'ottava sotto?;
#X obj 1511 92 array define array1;
#X obj 1130 785 *~ 1;
#X obj 1212 720 f 0;
#X obj 1211 682 t b;
#X obj 662 278 sigmund~ -npts 1024 -hop 512 -npeak 16 peaks;
#X obj 709 959 sel 15;
#X obj 1259 800 tgl 15 0 empty empty empty 17 7 0 10 -262144 -1 -1
0 1;
#X obj 698 1084 clone sing~ 16 1;
#X obj 1513 275 soundfiler;
#X msg 1513 243 read -resize ./ghironda.wav array1;
#X obj 1044 59 netreceive -b -u 47000;
#X obj 776 1246 vs.dbtoa;
#X floatatom 1291 455 5 0 0 0 - - -;
#X floatatom 776 1275 5 0 0 0 - - -;
#X floatatom 1532 351 5 0 0 0 - - -;
#X obj 776 1205 vs.scale 0 1 -80 0;
#X msg 776 1303 \$1 20;
#X obj 776 1332 line~;
#X obj 704 1365 *~;
#X obj 1044 151 route pot_0 pot_1 pot_2 pot_3;
#X obj 1258 186 s volume;
#X obj 776 1169 r volume;
#X msg 892 1278 1;
#X obj 987 1204 print DEBUG_VOLUME;
#X obj 972 228 print DEBUG_GAIN;
#X obj 1186 185 s sens;
#X obj 385 30 r sens;
#X obj 385 59 * 60;
#X msg 328 129 minvel \$1;
#X connect 0 0 1 0;
#X connect 1 0 25 0;
#X connect 2 0 1 0;
#X connect 3 0 1 0;
#X connect 4 0 13 0;
#X connect 4 0 2 0;
#X connect 4 0 10 0;
#X connect 4 0 11 0;
#X connect 4 0 3 0;
#X connect 5 0 16 0;
#X connect 7 0 8 0;
#X connect 10 0 1 0;
#X connect 11 0 1 0;
#X connect 12 0 9 0;
#X connect 13 0 1 0;
#X connect 14 0 15 0;
#X connect 15 0 86 0;
#X connect 16 0 1 0;
#X connect 16 0 71 0;
#X connect 17 0 18 0;
#X connect 18 0 16 1;
#X connect 21 0 17 0;
#X connect 22 0 74 0;
#X connect 23 0 17 0;
#X connect 24 0 1 0;
#X connect 25 0 26 0;
#X connect 26 0 27 0;
#X connect 27 0 29 0;
#X connect 28 0 27 0;
#X connect 29 0 6 0;
#X connect 29 0 55 0;
#X connect 29 1 30 0;
#X connect 30 0 28 0;
#X connect 32 0 50 0;
#X connect 33 0 32 1;
#X connect 34 0 35 0;
#X connect 34 1 36 1;
#X connect 35 0 36 0;
#X connect 35 1 72 0;
#X connect 36 0 74 0;
#X connect 37 0 33 0;
#X connect 38 0 43 0;
#X connect 39 0 33 0;
#X connect 40 0 16 0;
#X connect 41 0 40 0;
#X connect 42 0 70 0;
#X connect 42 0 74 1;
#X connect 43 0 39 0;
#X connect 46 0 47 0;
#X connect 46 2 47 1;
#X connect 47 0 45 0;
#X connect 47 1 45 1;
#X connect 48 0 49 0;
#X connect 49 0 51 0;
#X connect 50 0 52 0;
#X connect 50 1 48 0;
#X connect 50 2 46 0;
#X connect 51 0 52 1;
#X connect 52 0 34 0;
#X connect 52 0 62 0;
#X connect 54 0 53 0;
#X connect 57 0 65 0;
#X connect 59 0 60 0;
#X connect 60 0 61 0;
#X connect 61 0 63 0;
#X connect 62 0 59 0;
#X connect 62 1 61 1;
#X connect 63 0 57 0;
#X connect 65 0 68 0;
#X connect 68 0 58 0;
#X connect 69 0 68 1;
#X connect 70 0 69 0;
#X connect 71 0 32 0;
#X connect 72 0 37 0;
#X connect 73 0 68 1;
#X connect 74 0 85 0;
#X connect 76 0 75 0;
#X connect 77 0 14 0;
#X connect 78 0 80 0;
#X connect 80 0 83 0;
#X connect 82 0 78 0;
#X connect 83 0 84 0;
#X connect 84 0 85 1;
#X connect 85 0 56 0;
#X connect 86 0 20 0;
#X connect 86 0 91 0;
#X connect 86 1 19 0;
#X connect 86 2 92 0;
#X connect 86 3 87 0;
#X connect 88 0 82 0;
#X connect 88 0 90 0;
#X connect 89 0 80 0;
#X connect 93 0 94 0;
#X connect 94 0 95 0;
#X connect 95 0 1 0;
