#N canvas 0 58 1920 1022 16;
#X msg 303 266 bang;
#X obj 149 531 bonk~;
#X msg 100 69 mask 4 0.7;
#X msg 165 215 useloudness 0;
#X obj 286 87 loadbang;
#X obj 664 84 adc~ 1;
#X obj 149 710 s attack;
#X msg 302 167 attack-frames 1;
#X msg 143 170 spew 0;
#X msg 73 28 thresh 2.5 8;
#X obj 663 228 *~;
#X msg 682 152 \$1 5;
#X obj 682 181 line~;
#X obj 682 111 r gain;
#X floatatom 762 115 5 0 0 0 - - -;
#X msg 310 338 debounce 0;
#X obj 149 566 t b;
#X msg 149 608 1;
#X obj 149 637 change;
#X msg 255 672 set 0;
#X obj 149 666 t b b;
#X obj 255 640 delay 75;
#X obj 487 408 print;
#X obj 396 566 bng 25 250 50 0 empty empty empty 17 7 0 10 -262144
-1 -1;
#X obj 662 276 delwrite~ del0 5000;
#X obj 888 676 delread4~ del0;
#X obj 903 513 phasor~ 1;
#X obj 401 769 samphold~;
#X obj 401 733 noise~;
#X obj 401 798 abs~;
#X obj 401 827 *~ 1000;
#X msg 402 648 1;
#X obj 454 642 delay 10;
#X msg 454 671 0;
#X obj 479 727 sig~;
#X obj 886 630 *~;
#X obj 401 856 +~ 30;
#X obj 939 550 expr~ 1 - $v1;
#X obj 657 865 samphold~;
#X obj 657 829 noise~;
#X obj 657 894 abs~;
#X obj 657 923 *~ 4;
#X obj 657 952 +~ 0.1;
#X obj 80 812 samphold~;
#X obj 80 776 noise~;
#X obj 82 944 +~ 1;
#X obj 872 597 vs.sel3~;
#X obj 80 841 abs~;
#X obj 80 870 expr~ int($v1 * 3);
#X obj 1115 541 vs.rand1~ 8;
#X obj 1044 96 oscparse;
#X obj 1044 126 list trim;
#X obj 1043 187 s gain;
#X obj 1044 151 route pot_0 pot_1 pot_2 pot_3;
#X obj 1258 186 s volume;
#X obj 1186 185 s sens;
#X obj 911 851 *~;
#X obj 1059 690 vs.dbtoa;
#X floatatom 1059 764 5 0 0 0 - - -;
#X msg 1059 792 \$1 20;
#X obj 1059 821 line~;
#X obj 1059 616 r volume;
#X msg 1086 731 1;
#X obj 1310 650 print DEBUG_VOLUME;
#X obj 1256 790 print DEBUG_VOLUME_SCALED;
#X obj 1059 652 vs.scale 0 1 -80 12;
#X obj 1115 188 s feed;
#X obj 1134 305 r feed;
#X msg 1141 358 \$1 20;
#X obj 1141 387 line~;
#X obj 888 705 *~;
#X floatatom 1280 392 5 0 0 0 - - -;
#X obj 506 859 vs.number~;
#X obj 768 172 print DEBUG_GAIN;
#X obj 1221 352 print DEBUG_FDBK;
#X obj 423 513 print DEBUG_BONK;
#X msg 1471 193 \; pd dsp 1;
#X obj 1471 133 loadbang;
#X obj 912 900 dac~ 1;
#X msg 328 131 minvel 25;
#X obj 1044 59 netreceive -b -u 47000;
#X connect 0 0 1 0;
#X connect 1 0 16 0;
#X connect 2 0 1 0;
#X connect 3 0 1 0;
#X connect 4 0 9 0;
#X connect 4 0 2 0;
#X connect 4 0 7 0;
#X connect 4 0 8 0;
#X connect 4 0 3 0;
#X connect 4 0 79 0;
#X connect 5 0 10 0;
#X connect 7 0 1 0;
#X connect 8 0 1 0;
#X connect 9 0 1 0;
#X connect 10 0 24 0;
#X connect 10 0 1 0;
#X connect 11 0 12 0;
#X connect 12 0 10 1;
#X connect 13 0 11 0;
#X connect 13 0 73 0;
#X connect 14 0 11 0;
#X connect 15 0 1 0;
#X connect 16 0 17 0;
#X connect 17 0 18 0;
#X connect 18 0 20 0;
#X connect 19 0 18 0;
#X connect 20 0 6 0;
#X connect 20 0 23 0;
#X connect 20 0 75 0;
#X connect 20 1 21 0;
#X connect 21 0 19 0;
#X connect 23 0 31 0;
#X connect 23 0 32 0;
#X connect 25 0 70 0;
#X connect 26 0 37 0;
#X connect 26 0 46 1;
#X connect 27 0 29 0;
#X connect 28 0 27 0;
#X connect 29 0 30 0;
#X connect 30 0 36 0;
#X connect 31 0 34 0;
#X connect 32 0 33 0;
#X connect 33 0 34 0;
#X connect 34 0 27 1;
#X connect 34 0 38 1;
#X connect 34 0 43 1;
#X connect 35 0 25 0;
#X connect 36 0 35 1;
#X connect 37 0 46 2;
#X connect 38 0 40 0;
#X connect 39 0 38 0;
#X connect 40 0 41 0;
#X connect 41 0 42 0;
#X connect 42 0 26 0;
#X connect 43 0 47 0;
#X connect 44 0 43 0;
#X connect 45 0 46 0;
#X connect 45 0 72 0;
#X connect 46 0 35 0;
#X connect 47 0 48 0;
#X connect 48 0 45 0;
#X connect 49 0 46 3;
#X connect 50 0 51 0;
#X connect 51 0 53 0;
#X connect 53 0 52 0;
#X connect 53 1 66 0;
#X connect 53 2 55 0;
#X connect 53 3 54 0;
#X connect 56 0 78 0;
#X connect 57 0 58 0;
#X connect 57 0 64 0;
#X connect 58 0 59 0;
#X connect 59 0 60 0;
#X connect 60 0 56 1;
#X connect 61 0 63 0;
#X connect 61 0 65 0;
#X connect 62 0 58 0;
#X connect 65 0 57 0;
#X connect 67 0 68 0;
#X connect 67 0 74 0;
#X connect 68 0 69 0;
#X connect 69 0 70 1;
#X connect 70 0 56 0;
#X connect 70 0 24 0;
#X connect 71 0 68 0;
#X connect 77 0 76 0;
#X connect 79 0 1 0;
#X connect 80 0 50 0;
