#N canvas 110 105 1554 889 16;
#X obj 374 337 tabplay~ array1;
#X obj 410 295 bng 15 250 50 0 empty empty empty 17 7 0 10 -262144
-1 -1;
#X obj 477 162 soundfiler;
#X msg 477 130 read -resize ./ghironda.wav array1;
#X obj 514 660 dac~ 1;
#X obj 493 217 array define array1;
#X obj 515 607 vcf~ 10;
#X floatatom 557 525 5 0 0 0 - - -;
#X obj 557 553 sig~;
#X floatatom 612 584 5 0 0 0 - - -;
#X obj 238 88 loadbang;
#X msg 238 117 \; pd dsp 1;
#X obj 471 439 sigmund~ -npts 1024 -hop 512 -npeak 128 tracks;
#X obj 471 481 clone sing~ 128 1;
#X connect 0 0 12 0;
#X connect 0 1 1 0;
#X connect 1 0 0 0;
#X connect 3 0 2 0;
#X connect 6 0 4 0;
#X connect 7 0 8 0;
#X connect 8 0 6 1;
#X connect 9 0 6 2;
#X connect 10 0 11 0;
#X connect 12 0 13 0;
#X connect 13 0 6 0;
