#N canvas 656 325 782 526 12;
#X obj 320 35 loadbang;
#X msg 320 60 \; pd dsp 1;
#X obj 76 59 adc~ 1;
#X obj 147 453 dac~ 1;
#X obj 148 38 netreceive -b -u 8000;
#X obj 149 75 oscparse;
#X obj 147 105 list trim;
#X obj 82 168 *~;
#X msg 147 155 \$1 10;
#X obj 147 180 line~;
#X obj 147 130 route pot_0 button_0;
#X msg 227 183 \$1 10;
#X obj 227 208 line~;
#X obj 253 277 delwrite~ d0 1000;
#X obj 315 314 sig~ 200;
#X obj 315 339 delread4~ d0;
#X obj 315 364 *~ 0.8;
#X obj 215 397 *~;
#X connect 0 0 1 0;
#X connect 2 0 7 0;
#X connect 2 0 13 0;
#X connect 4 0 5 0;
#X connect 5 0 6 0;
#X connect 6 0 10 0;
#X connect 7 0 3 0;
#X connect 8 0 9 0;
#X connect 9 0 7 1;
#X connect 10 0 8 0;
#X connect 10 1 11 0;
#X connect 11 0 12 0;
#X connect 12 0 17 1;
#X connect 14 0 15 0;
#X connect 15 0 16 0;
#X connect 16 0 13 0;
#X connect 16 0 17 0;
#X connect 17 0 3 0;
