#N canvas 656 325 450 300 12;
#X obj 320 35 loadbang;
#X msg 320 60 \; pd dsp 1;
#X obj 76 59 adc~ 1;
#X obj 82 203 dac~ 1;
#X obj 148 38 netreceive -b -u 8000;
#X obj 149 75 oscparse;
#X obj 147 105 list trim;
#X obj 147 130 route pot_0;
#X obj 82 168 *~;
#X msg 147 155 \$1 10;
#X obj 147 180 line~;
#X connect 0 0 1 0;
#X connect 2 0 8 0;
#X connect 4 0 5 0;
#X connect 5 0 6 0;
#X connect 6 0 7 0;
#X connect 7 0 9 0;
#X connect 8 0 3 0;
#X connect 9 0 10 0;
#X connect 10 0 8 1;
