#N canvas 734 267 1064 518 12;
#X obj 71 57 adc~ 1;
#X obj 72 92 delwrite~ delay_0 1000;
#X obj 185 199 delread4~ delay_0;
#X obj 194 163 sig~ 200;
#X obj 333 110 netreceive -b -u 8000;
#X obj 333 135 oscparse;
#X obj 333 203 list trim;
#X obj 333 253 * 1000;
#X obj 333 278 + 5;
#X obj 605 140 loadbang;
#X msg 605 165 \; pd dsp 1;
#X obj 184 417 dac~ 2;
#X obj 485 178 print debug;
#X msg 459 316 \$1 10;
#X obj 459 341 line~;
#X obj 185 251 *~;
#X obj 185 352 *~;
#X msg 529 319 \$1 10;
#X obj 529 344 line~;
#X obj 333 228 route pot_0 pot_1 pot_2;
#X connect 0 0 1 0;
#X connect 2 0 15 0;
#X connect 3 0 2 0;
#X connect 4 0 5 0;
#X connect 5 0 6 0;
#X connect 5 0 12 0;
#X connect 6 0 19 0;
#X connect 7 0 8 0;
#X connect 8 0 3 0;
#X connect 9 0 10 0;
#X connect 13 0 14 0;
#X connect 14 0 15 1;
#X connect 15 0 1 0;
#X connect 15 0 16 0;
#X connect 16 0 11 0;
#X connect 17 0 18 0;
#X connect 18 0 16 1;
#X connect 19 0 7 0;
#X connect 19 1 13 0;
#X connect 19 2 17 0;
