#N canvas 4 62 920 806 16;
#X obj 145 17 inlet;
#X obj 144 391 outlet~;
#X obj 145 79 unpack 0 0;
#X obj 145 189 line~;
#X obj 242 241 line~;
#X obj 145 224 osc~;
#X obj 144 266 *~;
#X obj 322 248 osc~;
#X obj 322 277 *~ 0.5;
#X obj 322 306 +~ 0.5;
#X msg 322 120 \$1 5;
#X obj 322 155 line~;
#X obj 572 94 inlet;
#X obj 145 114 * \$2;
#X obj 538 294 loadbang;
#X obj 538 323 f \$2;
#X obj 538 352 print arg;
#X obj 572 123 route clear;
#X obj 572 152 f 0;
#X msg 145 154 \$1 5;
#X msg 242 206 \$1 50;
#X obj 322 53 random 1000;
#X obj 322 82 / 1000;
#X obj 144 332 *~;
#X obj 331 17 loadbang;
#X connect 0 0 2 0;
#X connect 2 0 13 0;
#X connect 2 1 20 0;
#X connect 3 0 5 0;
#X connect 4 0 6 1;
#X connect 5 0 6 0;
#X connect 6 0 23 0;
#X connect 7 0 8 0;
#X connect 8 0 9 0;
#X connect 9 0 23 1;
#X connect 10 0 11 0;
#X connect 11 0 7 0;
#X connect 12 0 17 0;
#X connect 13 0 19 0;
#X connect 14 0 15 0;
#X connect 15 0 16 0;
#X connect 17 0 18 0;
#X connect 18 0 20 0;
#X connect 19 0 3 0;
#X connect 20 0 4 0;
#X connect 21 0 22 0;
#X connect 22 0 10 0;
#X connect 23 0 1 0;
#X connect 24 0 21 0;
