#N canvas 4 62 603 536 12;
#X obj 144 17 inlet;
#X obj 173 371 outlet~;
#X obj 348 97 unpack 0 0;
#X floatatom 348 127 0 0 0 0 - - -;
#X obj 356 334 osc~;
#X obj 382 369 *~;
#X obj 340 185 *;
#X obj 340 210 sel 0;
#X msg 355 268 \$1 5;
#X obj 355 293 line~;
#X msg 411 226 \$1 5;
#X obj 411 251 line~;
#X obj 411 190 *;
#X obj 378 130 > 0.1;
#X obj 355 241 * 1;
#X obj 146 79 unpack 0 0;
#X msg 145 154 \$1 5;
#X obj 145 179 line~;
#X msg 217 155 \$1 5;
#X obj 217 180 line~;
#X obj 145 204 osc~;
#X obj 181 276 *~;
#X obj 146 104 * \$1;
#X connect 0 0 15 0;
#X connect 2 0 3 0;
#X connect 2 1 12 1;
#X connect 2 1 13 0;
#X connect 3 0 6 0;
#X connect 4 0 5 0;
#X connect 6 0 7 0;
#X connect 7 1 14 0;
#X connect 8 0 9 0;
#X connect 9 0 4 0;
#X connect 10 0 11 0;
#X connect 11 0 5 1;
#X connect 12 0 10 0;
#X connect 13 0 6 1;
#X connect 13 0 12 0;
#X connect 14 0 8 0;
#X connect 15 0 22 0;
#X connect 15 1 18 0;
#X connect 16 0 17 0;
#X connect 17 0 20 0;
#X connect 18 0 19 0;
#X connect 19 0 21 1;
#X connect 20 0 21 0;
#X connect 21 0 1 0;
#X connect 22 0 16 0;
