#N canvas 410 332 862 519 16;
#X obj 55 27 loadbang;
#X msg 55 56 \; pd dsp 1;
#X obj 261 83 phasor~ 1;
#X obj 261 112 expr~ $v1 < 0.5;
#X obj 427 169 *~ 320;
#X obj 427 198 +~ 80;
#X obj 427 412 *~;
#X obj 585 118 oscparse;
#X obj 585 147 list trim;
#X obj 585 89 netreceive -b -u 47000;
#X msg 585 205 \$1 25;
#X obj 585 234 line~;
#X obj 427 465 dac~;
#X obj 585 176 route pot_2;
#X obj 114 192 adc~ 1;
#X obj 426 288 osc~ 80;
#X connect 0 0 1 0;
#X connect 2 0 3 0;
#X connect 3 0 4 0;
#X connect 4 0 5 0;
#X connect 6 0 12 0;
#X connect 6 0 12 1;
#X connect 7 0 8 0;
#X connect 8 0 13 0;
#X connect 9 0 7 0;
#X connect 10 0 11 0;
#X connect 11 0 6 1;
#X connect 13 0 10 0;
#X connect 15 0 6 0;
