#N canvas 918 245 872 547 12;
#X obj 112 73 osc~ 440;
#X obj 189 121 phasor~ 1;
#X obj 189 146 expr~ $v1 < 0.2;
#X obj 134 180 *~;
#X obj 112 98 *~ 0.5;
#X obj 178 480 dac~ 1;
#X obj 308 48 loadbang;
#X msg 308 73 \; pd dsp 1;
#X obj 431 49 netreceive -b -u 8000;
#X obj 432 86 oscparse;
#X obj 430 116 list trim;
#X obj 141 253 *~;
#X msg 198 216 \$1 10;
#X obj 198 241 line~;
#X obj 430 141 route pot_0 pot_1;
#X msg 489 186 \$1 10;
#X obj 489 211 line~;
#X obj 353 411 adc~ 1;
#X obj 354 445 delwrite~ d0 1000;
#X obj 287 301 delread4~ d0;
#X obj 287 269 sig~ 200;
#X obj 288 361 *~;
#X connect 0 0 4 0;
#X connect 1 0 2 0;
#X connect 2 0 3 1;
#X connect 3 0 11 0;
#X connect 4 0 3 0;
#X connect 6 0 7 0;
#X connect 8 0 9 0;
#X connect 9 0 10 0;
#X connect 10 0 14 0;
#X connect 11 0 5 0;
#X connect 12 0 13 0;
#X connect 13 0 11 1;
#X connect 14 0 12 0;
#X connect 14 1 15 0;
#X connect 15 0 16 0;
#X connect 16 0 21 1;
#X connect 17 0 18 0;
#X connect 19 0 21 0;
#X connect 20 0 19 0;
#X connect 21 0 18 0;
#X connect 21 0 5 0;
