#N canvas 0 58 1920 1022 16;
#X msg 303 266 bang;
#X obj 149 531 bonk~;
#X msg 100 69 mask 4 0.7;
#X msg 165 215 useloudness 0;
#X obj 286 87 loadbang;
#X msg 302 167 attack-frames 1;
#X msg 143 170 spew 0;
#X msg 73 28 thresh 2.5 8;
#X msg 310 338 debounce 0;
#X obj 149 566 t b;
#X msg 328 131 minvel 25;
#X obj 149 595 print BONK;
#X connect 0 0 1 0;
#X connect 1 0 9 0;
#X connect 2 0 1 0;
#X connect 3 0 1 0;
#X connect 4 0 7 0;
#X connect 4 0 2 0;
#X connect 4 0 5 0;
#X connect 4 0 6 0;
#X connect 4 0 3 0;
#X connect 4 0 10 0;
#X connect 5 0 1 0;
#X connect 6 0 1 0;
#X connect 7 0 1 0;
#X connect 8 0 1 0;
#X connect 9 0 11 0;
#X connect 10 0 1 0;
